<mxfile host="app.diagrams.net" modified="2022-06-28T11:30:39.958Z" agent="5.0 (Macintosh; Intel Mac OS X 10_15_7) AppleWebKit/537.36 (KHTML, like Gecko) Chrome/102.0.0.0 Safari/537.36" etag="OGl2HgiaiVmW--8wQTgG" version="17.4.6" type="github">
  <diagram id="g8fBg2NlLfNivvkxpOVF" name="Page-1">
    <mxGraphModel dx="1193" dy="793" grid="1" gridSize="10" guides="1" tooltips="1" connect="1" arrows="1" fold="1" page="1" pageScale="1" pageWidth="827" pageHeight="1169" math="0" shadow="0">
      <root>
        <mxCell id="0" />
        <mxCell id="1" parent="0" />
        <mxCell id="NGE_ZNiIveXsMb7nbO6q-3" style="rounded=0;orthogonalLoop=1;jettySize=auto;html=1;fontColor=#000000;" edge="1" parent="1" source="NGE_ZNiIveXsMb7nbO6q-1" target="NGE_ZNiIveXsMb7nbO6q-2">
          <mxGeometry relative="1" as="geometry" />
        </mxCell>
        <mxCell id="NGE_ZNiIveXsMb7nbO6q-4" value="接口请求" style="edgeLabel;html=1;align=center;verticalAlign=middle;resizable=0;points=[];fontColor=#000000;" vertex="1" connectable="0" parent="NGE_ZNiIveXsMb7nbO6q-3">
          <mxGeometry x="0.1658" y="5" relative="1" as="geometry">
            <mxPoint y="1" as="offset" />
          </mxGeometry>
        </mxCell>
        <mxCell id="NGE_ZNiIveXsMb7nbO6q-1" value="&lt;b&gt;客户端&lt;/b&gt;" style="html=1;verticalLabelPosition=bottom;labelBackgroundColor=#ffffff;verticalAlign=top;shadow=0;dashed=0;strokeWidth=1;shape=mxgraph.ios7.misc.iphone;strokeColor=#c0c0c0;" vertex="1" parent="1">
          <mxGeometry x="60" y="460" width="50" height="110" as="geometry" />
        </mxCell>
        <mxCell id="NGE_ZNiIveXsMb7nbO6q-13" value="" style="edgeStyle=none;rounded=0;orthogonalLoop=1;jettySize=auto;html=1;fontColor=#000000;" edge="1" parent="1" source="NGE_ZNiIveXsMb7nbO6q-2" target="NGE_ZNiIveXsMb7nbO6q-11">
          <mxGeometry relative="1" as="geometry" />
        </mxCell>
        <mxCell id="NGE_ZNiIveXsMb7nbO6q-2" value="&lt;font color=&quot;#000000&quot;&gt;&lt;b&gt;网关&lt;/b&gt;&lt;/font&gt;" style="html=1;outlineConnect=0;fillColor=#CCCCCC;strokeColor=#6881B3;gradientColor=none;gradientDirection=north;strokeWidth=2;shape=mxgraph.networks.cloud;fontColor=#ffffff;" vertex="1" parent="1">
          <mxGeometry x="250" y="400" width="90" height="50" as="geometry" />
        </mxCell>
        <mxCell id="NGE_ZNiIveXsMb7nbO6q-17" style="edgeStyle=none;rounded=0;orthogonalLoop=1;jettySize=auto;html=1;fontColor=#000000;" edge="1" parent="1" source="NGE_ZNiIveXsMb7nbO6q-5" target="NGE_ZNiIveXsMb7nbO6q-11">
          <mxGeometry relative="1" as="geometry">
            <Array as="points">
              <mxPoint x="600" y="410" />
            </Array>
          </mxGeometry>
        </mxCell>
        <mxCell id="NGE_ZNiIveXsMb7nbO6q-18" value="带上自己的 trp k_v值" style="edgeLabel;html=1;align=center;verticalAlign=middle;resizable=0;points=[];fontColor=#000000;" vertex="1" connectable="0" parent="NGE_ZNiIveXsMb7nbO6q-17">
          <mxGeometry x="-0.2378" y="1" relative="1" as="geometry">
            <mxPoint x="1" as="offset" />
          </mxGeometry>
        </mxCell>
        <mxCell id="NGE_ZNiIveXsMb7nbO6q-5" value="算法" style="fontColor=#0066CC;verticalAlign=top;verticalLabelPosition=bottom;labelPosition=center;align=center;html=1;outlineConnect=0;fillColor=#CCCCCC;strokeColor=#6881B3;gradientColor=none;gradientDirection=north;strokeWidth=2;shape=mxgraph.networks.server;" vertex="1" parent="1">
          <mxGeometry x="680" y="300" width="50" height="60" as="geometry" />
        </mxCell>
        <mxCell id="NGE_ZNiIveXsMb7nbO6q-19" style="edgeStyle=none;rounded=0;orthogonalLoop=1;jettySize=auto;html=1;fontColor=#000000;" edge="1" parent="1" source="NGE_ZNiIveXsMb7nbO6q-6" target="NGE_ZNiIveXsMb7nbO6q-11">
          <mxGeometry relative="1" as="geometry">
            <mxPoint x="580" y="460" as="targetPoint" />
            <Array as="points">
              <mxPoint x="570" y="490" />
            </Array>
          </mxGeometry>
        </mxCell>
        <mxCell id="NGE_ZNiIveXsMb7nbO6q-21" value="带上自己的 trp k_v值" style="edgeLabel;html=1;align=center;verticalAlign=middle;resizable=0;points=[];fontColor=#000000;" vertex="1" connectable="0" parent="NGE_ZNiIveXsMb7nbO6q-19">
          <mxGeometry x="-0.1183" relative="1" as="geometry">
            <mxPoint as="offset" />
          </mxGeometry>
        </mxCell>
        <mxCell id="NGE_ZNiIveXsMb7nbO6q-6" value="接口后端" style="fontColor=#0066CC;verticalAlign=top;verticalLabelPosition=bottom;labelPosition=center;align=center;html=1;outlineConnect=0;fillColor=#CCCCCC;strokeColor=#6881B3;gradientColor=none;gradientDirection=north;strokeWidth=2;shape=mxgraph.networks.server;fontStyle=1" vertex="1" parent="1">
          <mxGeometry x="680" y="460" width="50" height="60" as="geometry" />
        </mxCell>
        <mxCell id="NGE_ZNiIveXsMb7nbO6q-14" style="edgeStyle=none;rounded=0;orthogonalLoop=1;jettySize=auto;html=1;fontColor=#000000;" edge="1" parent="1" source="NGE_ZNiIveXsMb7nbO6q-11" target="NGE_ZNiIveXsMb7nbO6q-5">
          <mxGeometry relative="1" as="geometry">
            <Array as="points">
              <mxPoint x="560" y="360" />
            </Array>
          </mxGeometry>
        </mxCell>
        <mxCell id="NGE_ZNiIveXsMb7nbO6q-15" style="edgeStyle=none;rounded=0;orthogonalLoop=1;jettySize=auto;html=1;fontColor=#000000;" edge="1" parent="1" source="NGE_ZNiIveXsMb7nbO6q-11" target="NGE_ZNiIveXsMb7nbO6q-6">
          <mxGeometry relative="1" as="geometry">
            <Array as="points">
              <mxPoint x="600" y="440" />
            </Array>
          </mxGeometry>
        </mxCell>
        <mxCell id="NGE_ZNiIveXsMb7nbO6q-25" style="edgeStyle=none;rounded=0;orthogonalLoop=1;jettySize=auto;html=1;fontColor=#000000;dashed=1;" edge="1" parent="1" source="NGE_ZNiIveXsMb7nbO6q-11" target="NGE_ZNiIveXsMb7nbO6q-24">
          <mxGeometry relative="1" as="geometry" />
        </mxCell>
        <mxCell id="NGE_ZNiIveXsMb7nbO6q-11" value="" style="fontColor=#0066CC;verticalAlign=top;verticalLabelPosition=bottom;labelPosition=center;align=center;html=1;outlineConnect=0;fillColor=#CCCCCC;strokeColor=#6881B3;gradientColor=none;gradientDirection=north;strokeWidth=2;shape=mxgraph.networks.switch;" vertex="1" parent="1">
          <mxGeometry x="404" y="410" width="100" height="30" as="geometry" />
        </mxCell>
        <mxCell id="NGE_ZNiIveXsMb7nbO6q-24" value="&lt;h1&gt;&lt;font style=&quot;font-size: 18px&quot;&gt;组装各个端(s_app)的trp&lt;/font&gt;&lt;/h1&gt;&lt;p&gt;1. 一个数组，每一项都可以拿来做匹配&lt;br&gt;2. 每一项的格式: &lt;i style=&quot;font-weight: bold&quot;&gt;${c_type}::${c_id}::${kv_str}&lt;/i&gt;&lt;br&gt;3. ${c_id}: 这一项支持通配符 &quot;*&quot;&lt;br&gt;4. 格式解读: 指定 &lt;b&gt;&lt;i&gt;${c_type}&lt;/i&gt;&lt;/b&gt; &amp;amp; &lt;b&gt;&lt;i&gt;$c_id}&lt;/i&gt;&lt;/b&gt;的资源，trp值 == &lt;b style=&quot;font-style: italic&quot;&gt;${kv_str}&lt;/b&gt;&lt;br&gt;5. 详细见:&amp;nbsp;https://kms.netease.com/team/d083002/article/59529&lt;/p&gt;" style="text;html=1;strokeColor=none;fillColor=none;spacing=5;spacingTop=-20;whiteSpace=wrap;overflow=hidden;rounded=0;fontColor=#000000;" vertex="1" parent="1">
          <mxGeometry x="254" y="170" width="400" height="130" as="geometry" />
        </mxCell>
      </root>
    </mxGraphModel>
  </diagram>
</mxfile>
